<svg id="Layer_1" data-name="Layer 1" xmlns="http://www.w3.org/2000/svg" viewBox="0 0 122.88 122.88"><defs><style>.cls-1{fill:#c4c4c4;fill-rule:evenodd;}.cls-2{fill:#fff;}</style></defs><title>addImageButton</title><path class="cls-1" d="M61.44,0A61.44,61.44,0,1,1,0,61.44H0A61.44,61.44,0,0,1,61.44,0Z"/><path class="cls-2" d="M56.5,78.29H27V31.9H86V55.1a1.41,1.41,0,0,0,2.81,0V30.5a1.41,1.41,0,0,0-1.41-1.41H25.57a1.41,1.41,0,0,0-1.41,1.41V79.7a1.41,1.41,0,0,0,1.41,1.4H56.5a1.41,1.41,0,0,0,0-2.81Z"/><path class="cls-2" d="M56.5,72.67H32.6V64.11l7.17-7.17,9.57,7a1.4,1.4,0,0,0,1.78-.09l15-13.7,6.11,8.55a1.41,1.41,0,0,0,2.29-1.63l-7-9.84a1.39,1.39,0,0,0-1-.58,1.41,1.41,0,0,0-1.09.36L50.07,61l-9.61-7a1.41,1.41,0,0,0-1.83.14l-6,6V37.52H80.39V55.1a1.41,1.41,0,0,0,2.81,0v-19a1.4,1.4,0,0,0-1.4-1.41H31.19a1.41,1.41,0,0,0-1.4,1.41V74.07a1.41,1.41,0,0,0,1.4,1.41H56.5a1.41,1.41,0,0,0,0-2.81Z"/><path class="cls-2" d="M81.8,60A19.68,19.68,0,1,0,101.48,79.7,19.7,19.7,0,0,0,81.8,60Zm0,36.55A16.87,16.87,0,1,1,98.67,79.7,16.89,16.89,0,0,1,81.8,96.57Z"/><polygon class="cls-2" points="83.2 68.45 80.39 68.45 80.39 78.29 70.55 78.29 70.55 81.1 80.39 81.1 80.39 90.94 83.2 90.94 83.2 81.1 93.05 81.1 93.05 78.29 83.2 78.29 83.2 68.45"/><path class="cls-2" d="M39.63,46a5.62,5.62,0,1,0,5.62-5.62A5.62,5.62,0,0,0,39.63,46Zm8.43,0a2.81,2.81,0,1,1-2.81-2.81A2.81,2.81,0,0,1,48.06,46Z"/></svg>